<svg width="76" height="25" viewBox="0 0 76 25" fill="none" xmlns="http://www.w3.org/2000/svg">
<g clip-path="url(#clip0_32_10821)">
<path fill-rule="evenodd" clip-rule="evenodd" d="M12.56 0.853516C12.5353 0.853516 12.5105 0.853516 12.4857 0.853516C9.1587 0.853516 5.95756 1.63117 2.85549 3.2C1.5965 6.2129 0.886516 9.27571 0.849365 12.4009C0.799831 15.5011 1.43449 18.6762 2.84208 21.9147C6.0814 23.3328 9.32072 24.0605 12.56 24.099C15.7994 24.0605 19.0387 23.3328 22.277 21.9147C23.6856 18.6762 24.3202 15.5011 24.2707 12.4009C24.2336 9.27571 23.5236 6.2129 22.2646 3.2C19.1625 1.63117 15.9614 0.853516 12.6343 0.853516C12.6096 0.853516 12.5848 0.853516 12.56 0.853516Z" fill="#FEFEFE"/>
<path d="M2.33212 2.51075C5.5962 0.8286 8.98413 0 12.4856 0C12.5103 0 12.5351 0 12.5599 0C12.5846 0 12.6094 0 12.6342 0C16.1356 0 19.5235 0.8286 22.7876 2.51075L22.9878 2.72388C24.3201 5.88649 25.0806 9.11252 25.1178 12.3885C25.1178 12.4508 25.1178 12.5007 25.1178 12.5642V12.7898C25.1054 15.9399 24.4326 19.1534 22.9878 22.4169L22.7628 22.63C19.3625 24.149 15.9612 24.9141 12.5599 24.9526C9.15853 24.9141 5.75719 24.149 2.35688 22.63L2.13192 22.4169C0.687174 19.1534 0.0143366 15.9399 0.00195312 12.7898V12.5642C0.00195312 12.5007 0.00195312 12.4508 0.00195312 12.3885C0.0391037 9.11252 0.799658 5.88649 2.13192 2.72388L2.33212 2.51075ZM12.5599 0.853551C12.5351 0.853551 12.5103 0.853551 12.4856 0.853551C9.15853 0.853551 5.95739 1.63121 2.85532 3.20004C1.59633 6.21294 0.886342 9.27574 0.849192 12.4009C0.799658 15.5012 1.43431 18.6762 2.84191 21.9147C6.08123 23.3328 9.32055 24.0606 12.5599 24.0991C15.7992 24.0606 19.0385 23.3328 22.2768 21.9147C23.6854 18.6762 24.3201 15.5012 24.2705 12.4009C24.2334 9.27574 23.5234 6.21294 22.2644 3.20004C19.1623 1.63121 15.9612 0.853551 12.6342 0.853551C12.6094 0.853551 12.5846 0.853551 12.5599 0.853551Z" fill="#003399"/>
<path fill-rule="evenodd" clip-rule="evenodd" d="M12.7827 19.4423C12.6083 17.0449 12.7207 14.5466 12.0108 12.2625C11.3503 10.1292 8.84574 8.91173 8.79621 6.5642C8.74667 4.7313 10.1295 2.61042 12.7207 2.61042C15.15 2.59794 16.6577 4.3799 16.8321 6.36355C17.0436 8.66013 14.278 10.204 13.5556 12.3883C12.8074 14.6225 13.02 17.0948 12.7827 19.4423Z" fill="#003399"/>
<path fill-rule="evenodd" clip-rule="evenodd" d="M13.7427 18.864C13.6426 16.7806 13.6426 14.7855 14.2163 13.015C14.851 11.0074 16.1719 9.31277 18.1904 8.76072C19.5732 8.38436 21.6031 10.0156 21.2801 11.6852C21.0056 13.0285 19.6723 14.6098 17.53 14.7855C16.5331 14.8728 16.11 15.6765 15.4867 16.1412C18.2771 15.8646 20.0841 14.7605 21.342 13.6055C21.5288 14.5838 21.6537 16.2285 20.8931 16.793C19.3988 17.8597 18.016 16.9937 16.2586 17.4958C15.2751 17.7849 14.6642 18.4128 13.7427 18.864Z" fill="#003399"/>
<path fill-rule="evenodd" clip-rule="evenodd" d="M11.8382 18.864C11.9496 16.7806 11.9373 14.7855 11.3769 13.015C10.7412 11.0074 9.42133 9.31277 7.40282 8.76072C6.02 8.38436 3.97672 10.0156 4.31314 11.6852C4.58764 13.0285 5.9199 14.6098 8.06328 14.7855C9.04777 14.8728 9.48325 15.6765 10.1066 16.1412C7.30272 15.8646 5.50918 14.7605 4.25122 13.6055C4.06443 14.5838 3.93957 16.2285 4.69909 16.793C6.1944 17.8597 7.57722 16.9937 9.33362 17.4958C10.3181 17.7849 10.9156 18.4128 11.8382 18.864Z" fill="#003399"/>
<path fill-rule="evenodd" clip-rule="evenodd" d="M18.4779 21.9647V21.6258L18.7276 21.5634L18.4779 21.1871V20.5591L19.5996 22.1279L19.2013 22.2288L18.9268 21.8389L18.4779 21.9647ZM18.4779 20.5591V21.1871L18.3035 20.9355L18.2292 21.6892L18.4779 21.6258V21.9647L18.192 22.0281L18.1414 22.4918L17.7431 22.5927L18.0052 20.5466L18.4036 20.4458L18.4779 20.5591ZM14.7659 23.0574V22.7309H14.8526C14.9898 22.7185 15.0775 22.706 15.1147 22.6925C15.1642 22.68 15.2138 22.6426 15.2396 22.6051C15.2767 22.5552 15.2891 22.5043 15.2891 22.4419C15.2767 22.3795 15.2643 22.3286 15.2261 22.2912C15.2014 22.2537 15.1518 22.2288 15.1023 22.2163C15.0528 22.2038 14.9403 22.2038 14.7659 22.2163V21.8899C14.865 21.8899 14.9279 21.8774 14.9527 21.8774C15.0146 21.8649 15.0652 21.8264 15.1023 21.789C15.1395 21.7516 15.1518 21.7017 15.1395 21.6383C15.1395 21.5759 15.1147 21.526 15.0775 21.5C15.0528 21.4626 15.0022 21.4376 14.9279 21.4376C14.9031 21.4376 14.8526 21.4376 14.7659 21.4501V21.1236C14.9031 21.1112 15.0022 21.1112 15.0652 21.1236C15.1395 21.1236 15.2138 21.1496 15.2767 21.1871C15.3386 21.212 15.3882 21.2619 15.4387 21.3243C15.4759 21.3877 15.5007 21.4626 15.513 21.5509C15.5254 21.6383 15.5007 21.7266 15.4635 21.8015C15.4264 21.8774 15.3634 21.9398 15.2767 21.9897C15.4005 22.0157 15.5007 22.0656 15.5626 22.1404C15.6379 22.2163 15.6751 22.3036 15.6874 22.417C15.6874 22.5043 15.6751 22.5927 15.6503 22.68C15.6131 22.7684 15.5626 22.8307 15.5007 22.8942C15.4263 22.9441 15.351 22.9815 15.2519 23.0064C15.189 23.0189 15.027 23.0314 14.7907 23.0574H14.7659ZM17.1198 22.0021L17.5068 22.0531C17.482 22.2662 17.4191 22.4419 17.3076 22.5677C17.1951 22.68 17.0331 22.7684 16.8339 22.8058C16.5842 22.8432 16.3603 22.7933 16.1735 22.655C15.9743 22.5043 15.8618 22.2912 15.7999 21.9897C15.7494 21.6767 15.7875 21.4127 15.9238 21.212C16.0486 21.0114 16.2478 20.8856 16.5099 20.8357C16.7462 20.7972 16.933 20.8357 17.1074 20.9479C17.2075 21.0114 17.2942 21.1112 17.3571 21.2619L16.996 21.4127C16.9588 21.3243 16.8959 21.2494 16.8216 21.212C16.7338 21.1621 16.6472 21.1496 16.5471 21.1621C16.4098 21.1871 16.3107 21.2619 16.2354 21.3752C16.1611 21.5 16.1487 21.6643 16.1859 21.8899C16.2354 22.1279 16.3107 22.2912 16.4098 22.3795C16.5099 22.4669 16.6348 22.5043 16.771 22.4793C16.8711 22.4544 16.9464 22.4045 17.0083 22.3286C17.0703 22.2537 17.1074 22.1404 17.1198 22.0021ZM14.7659 21.1236V21.4501C14.7164 21.4501 14.6658 21.4626 14.6039 21.4626L14.3799 21.4886L14.4171 21.9273L14.6782 21.9023C14.7029 21.9023 14.7411 21.9023 14.7659 21.8899V22.2163C14.7659 22.2163 14.7659 22.2163 14.7535 22.2163L14.4542 22.2413L14.4914 22.7559L14.7659 22.7309V23.0574L14.1426 23.1198L13.9682 21.1995L14.7287 21.1372C14.7411 21.1236 14.7535 21.1236 14.7659 21.1236ZM12.3614 22.392V22.0656C12.4481 22.0656 12.4987 22.0531 12.5358 22.0406C12.5854 22.0281 12.6225 21.9897 12.6607 21.9522C12.6855 21.9023 12.6978 21.8524 12.6978 21.8015C12.7102 21.7266 12.6855 21.6767 12.6473 21.6258C12.6101 21.5759 12.5606 21.5509 12.4987 21.5385C12.4605 21.5385 12.4233 21.526 12.3614 21.526V21.1995C12.5482 21.1995 12.6607 21.212 12.7226 21.237C12.8351 21.2619 12.9218 21.3243 12.9971 21.4251C13.0714 21.526 13.1086 21.6507 13.0962 21.8015C13.0962 21.9148 13.0714 22.0157 13.0343 22.103C12.9837 22.1778 12.9342 22.2413 12.8722 22.2912C12.7969 22.3286 12.735 22.3535 12.6607 22.3795C12.5854 22.392 12.4863 22.392 12.3614 22.392ZM12.3614 21.1995V21.526C12.3243 21.526 12.2737 21.526 12.2118 21.526L12.025 21.5135V22.0656H12.2242C12.2737 22.0656 12.3243 22.0656 12.3614 22.0656V22.392C12.3367 22.392 12.2985 22.392 12.2613 22.392H12.0126L12.0002 23.1198L11.6133 23.1073L11.6514 21.1871L12.2613 21.1995C12.2985 21.1995 12.3367 21.1995 12.3614 21.1995ZM8.76092 22.2038V21.6133C8.8734 21.6383 8.9477 21.6383 8.98485 21.6383C9.03542 21.6258 9.07257 21.6133 9.10972 21.5759C9.13449 21.5385 9.15926 21.5 9.17164 21.4376C9.18402 21.3752 9.17164 21.3243 9.14687 21.2744C9.1221 21.2245 9.07257 21.1995 9.00962 21.1746C8.98485 21.1621 8.89817 21.1496 8.76092 21.1236V20.7972L8.92294 20.8232C9.1221 20.8606 9.25936 20.898 9.34604 20.9479C9.43376 20.9989 9.49567 21.0737 9.53282 21.1746C9.57101 21.2619 9.58339 21.3752 9.55862 21.4886C9.53282 21.6258 9.47091 21.7391 9.37184 21.814C9.28412 21.8899 9.14687 21.9273 8.97247 21.9273C9.0478 21.9897 9.10972 22.0531 9.14687 22.1155C9.19641 22.1914 9.24697 22.3036 9.30889 22.4669L9.47091 22.8817L9.022 22.7933L8.82284 22.3286C8.79807 22.2912 8.78569 22.2413 8.76092 22.2038ZM9.85686 21.0114L10.2304 21.0488L10.1437 22.0905C10.1314 22.2537 10.1314 22.3671 10.1314 22.4045C10.1437 22.4918 10.1809 22.5552 10.2304 22.6051C10.2934 22.6675 10.3677 22.6925 10.4802 22.706C10.5926 22.7185 10.6793 22.6925 10.7289 22.655C10.7918 22.6176 10.829 22.5677 10.8537 22.5043C10.8661 22.4419 10.8785 22.3286 10.8909 22.1778L10.9786 21.1112L11.3646 21.1496L11.2779 22.1529C11.2655 22.392 11.2397 22.5552 11.2025 22.6426C11.1778 22.7309 11.1282 22.8183 11.0777 22.8682C11.0158 22.9316 10.9291 22.9815 10.829 23.0064C10.7413 23.0449 10.6174 23.0449 10.4678 23.0314C10.281 23.0189 10.1437 22.9815 10.056 22.9316C9.96934 22.8817 9.89401 22.8183 9.84448 22.7559C9.79494 22.68 9.77018 22.6051 9.75779 22.5303C9.74541 22.417 9.74541 22.2537 9.75779 22.0406L9.85686 21.0114ZM6.83012 21.5759L6.90442 21.2619L7.71451 21.475L7.51534 22.2163C7.41524 22.2787 7.29038 22.3161 7.11597 22.3286C6.95396 22.3411 6.80535 22.3286 6.65572 22.2912C6.45552 22.2413 6.29453 22.1529 6.18205 22.0406C6.05718 21.9148 5.98288 21.7641 5.94573 21.6008C5.91993 21.4251 5.91993 21.2494 5.9705 21.0737C6.02003 20.8856 6.10672 20.7223 6.23158 20.5841C6.34407 20.4593 6.4937 20.3834 6.6681 20.346C6.80535 20.3086 6.96634 20.321 7.14177 20.3709C7.36571 20.4333 7.54011 20.5217 7.63918 20.66C7.73928 20.7847 7.78881 20.9479 7.77643 21.1236L7.39048 21.0987C7.39048 20.9989 7.36571 20.9105 7.30276 20.8357C7.24084 20.7722 7.16654 20.7099 7.05406 20.6849C6.89204 20.6475 6.75479 20.66 6.62992 20.7348C6.50609 20.8107 6.41837 20.9604 6.35645 21.1621C6.29453 21.3877 6.30692 21.5634 6.36883 21.7017C6.44314 21.8389 6.55562 21.9273 6.70525 21.9647C6.79194 21.9897 6.86727 21.9897 6.95396 21.9897C7.04167 21.9772 7.11597 21.9522 7.19131 21.9273L7.25322 21.6892L6.83012 21.5759ZM8.76092 20.7972L8.11285 20.6849L7.78881 22.5802L8.16238 22.6426L8.29963 21.8524L8.38735 21.8649C8.47403 21.8774 8.53698 21.9023 8.57413 21.9148C8.61128 21.9398 8.63605 21.9772 8.6732 22.0157C8.68559 22.0531 8.72377 22.1155 8.76092 22.2038V21.6133C8.72377 21.6133 8.68559 21.6008 8.63605 21.6008L8.36258 21.5509L8.43688 21.0737L8.73615 21.1236C8.74853 21.1236 8.76092 21.1236 8.76092 21.1236V20.7972Z" fill="#003399"/>
<path fill-rule="evenodd" clip-rule="evenodd" d="M68.1356 18.4502V14.9102H69.6805V8.6848L68.1356 11.7975V4.02822H74.2025L75.7474 21.9268H69.6805V18.4502H68.1356ZM68.1356 4.02822V11.7975L66.5908 14.9102H68.1356V18.4502H65.2204L64.0243 21.7386H60.2618V17.6466L64.4598 8.52158H63.6002L65.9923 4.02822H68.1356ZM60.2618 9.9906L62.143 5.49724L60.2618 4.44304V9.9906ZM45.2994 8.27102C45.3871 7.7564 45.3871 7.25425 45.2994 6.77705V8.27102ZM60.2618 4.44304V9.9906L60.0131 10.5926C56.3001 7.91962 50.8183 10.3545 50.5067 13.1782C50.196 16.1276 52.4261 18.5126 58.1194 16.7306L56.1628 22.0017C48.6512 22.8427 45.7359 19.8433 45.2994 16.3418V14.3582C45.4119 13.4422 45.6482 12.5513 45.9722 11.7227C49.6728 2.45939 55.6768 4.54284 57.9574 4.36714L58.2938 3.33789L60.2618 4.44304ZM60.2618 17.6466L58.3805 21.7386H60.2618V17.6466ZM38.5473 21.6253C42.5709 20.8227 46.5202 15.9519 42.5585 12.0741C44.1034 11.2455 45.0631 9.75252 45.2994 8.27102V6.77705C45.0259 5.23317 43.8423 3.97831 41.6122 3.94089L38.5473 3.87747V7.31662H39.8176C41.1757 7.31662 41.0013 10.8566 39.3068 10.8566H38.5473V13.568C40.379 13.9194 39.7309 16.479 38.5473 17.2702V21.6253ZM45.2994 14.3582V16.3418C45.2251 15.6889 45.2251 15.0235 45.2994 14.3582ZM33.2399 3.76519L30.7611 8.60995L31.8695 8.52158L28.8799 21.7386H37.439C37.8125 21.7386 38.1737 21.7012 38.5473 21.6253V17.2702C38.3357 17.421 38.0984 17.5083 37.8621 17.5083H34.7848L35.8064 13.5296H38.1108C38.2728 13.5296 38.4224 13.542 38.5473 13.568V10.8566H36.4039L37.2635 7.31662H38.5473V3.87747L33.2399 3.76519Z" fill="#003399"/>
</g>
<defs>
<clipPath id="clip0_32_10821">
<rect width="75.749" height="24.9526" fill="white"/>
</clipPath>
</defs>
</svg>
