<svg width="41" height="34" viewBox="0 0 41 34" fill="none" xmlns="http://www.w3.org/2000/svg">
<g clip-path="url(#clip0_32_10830)">
<path fill-rule="evenodd" clip-rule="evenodd" d="M7.97004 3.45367C7.97004 1.5464 9.52305 0 11.4385 0H28.6858C30.6012 0 32.1528 1.5464 32.1528 3.45367V20.6275C32.1528 22.5348 30.6012 24.0812 28.6858 24.0812H11.4385C9.52305 24.0812 7.97004 22.5348 7.97004 20.6275V3.45367ZM12.1888 21.7214C11.1681 21.7214 10.3399 20.8968 10.3399 19.879V4.20642C10.3399 3.19006 11.1681 2.36541 12.1888 2.36541H14.2982C17.0786 2.36541 19.137 5.16922 17.3589 6.94257L12.2015 12.085L16.6284 16.7031C18.7746 18.9416 16.2603 21.7214 13.8791 21.7214H12.1888ZM18.8836 2.36541H20.6659C23.4449 2.36541 25.5033 5.16922 23.7267 6.94257L18.5679 12.085L28.0502 21.7172L18.0441 21.7158C20.1931 21.7158 21.5507 18.1141 19.2502 15.729L15.7365 12.085L19.8264 7.88704C22.0292 5.62595 20.4309 2.71641 18.8836 2.36541ZM29.7816 19.879L22.1029 12.085L26.1942 7.88704C28.397 5.62595 26.7973 2.71641 25.2499 2.36541H27.9284C28.9506 2.36541 29.7787 3.19006 29.7787 4.20642L29.7816 19.879ZM1.58528 31.3593V32.7633H2.21385C2.54087 32.7633 2.78862 32.7013 2.95709 32.58C3.12555 32.4588 3.21049 32.2812 3.21049 32.0486C3.21049 31.8188 3.13263 31.6469 2.97832 31.5313C2.82401 31.4171 2.59325 31.3593 2.28605 31.3593H1.58528ZM1.58528 28.9657V30.3006H2.07086C2.40921 30.3006 2.66121 30.2428 2.82967 30.1301C2.99673 30.0159 3.08025 29.8425 3.08025 29.6099C3.08025 29.3984 3.00239 29.2392 2.84383 29.1292C2.68669 29.0207 2.4531 28.9657 2.14731 28.9657H1.58528ZM0.0195312 27.8887H2.47575C3.202 27.8887 3.74846 28.0184 4.1137 28.2778C4.48037 28.5386 4.66299 28.9248 4.66299 29.4379C4.66299 29.7819 4.56672 30.0694 4.37561 30.2978C4.18449 30.5262 3.9056 30.6911 3.53893 30.7912C3.9509 30.8673 4.2666 31.028 4.48745 31.2733C4.70829 31.5186 4.81872 31.8315 4.81872 32.2121C4.81872 32.7732 4.61769 33.189 4.21422 33.4597C3.81216 33.7289 3.19209 33.8642 2.354 33.8642H0.0195313V27.8887H0.0195312ZM8.24468 29.2222L7.46747 31.4622H8.99642L8.24468 29.2222ZM7.31175 27.8887H9.24133L11.5135 33.8642H9.80336L9.37724 32.5984H7.06683L6.61947 33.8642H5.03673L7.31175 27.8887ZM11.8589 27.8887H13.8565L15.5935 31.4721C15.653 31.5919 15.7224 31.7596 15.8016 31.9739C15.8795 32.1882 15.9673 32.4518 16.0621 32.7633C16.0126 32.4687 15.9743 32.198 15.9503 31.9513C15.9262 31.7046 15.9149 31.4791 15.9149 31.2747V27.8887H17.3589V33.8642H15.3698L13.5648 30.1512C13.4813 29.9806 13.4035 29.7946 13.3327 29.5944C13.2633 29.3942 13.1982 29.1757 13.1387 28.9403C13.1953 29.297 13.2364 29.624 13.2633 29.9228C13.2902 30.2203 13.3044 30.4839 13.3044 30.7108V33.8642H11.8589V27.8887ZM18.4943 27.8887H20.094V30.4712L21.9528 27.8887H23.7436L21.5394 30.6347L23.9687 33.8642H21.9811L20.094 31.0929V33.8642H18.4943V27.8887ZM28.6235 31.3593V32.7633H29.2535C29.5791 32.7633 29.8269 32.7013 29.9953 32.58C30.1652 32.4588 30.2487 32.2812 30.2487 32.0486C30.2487 31.8188 30.1723 31.6469 30.0166 31.5313C29.8623 31.4171 29.6315 31.3593 29.3243 31.3593H28.6235ZM28.6235 28.9657V30.3006H29.1091C29.4475 30.3006 29.7009 30.2428 29.8679 30.1301C30.035 30.0159 30.1199 29.8425 30.1199 29.6099C30.1199 29.3984 30.0406 29.2392 29.8821 29.1292C29.7249 29.0207 29.4928 28.9657 29.1856 28.9657H28.6235ZM27.0578 27.8887H29.5154C30.2417 27.8887 30.7867 28.0184 31.1534 28.2778C31.5186 28.5386 31.7012 28.9248 31.7012 29.4379C31.7012 29.7819 31.6064 30.0694 31.4153 30.2978C31.2227 30.5262 30.9438 30.6911 30.5786 30.7912C30.9891 30.8673 31.3048 31.028 31.5257 31.2733C31.7465 31.5186 31.857 31.8315 31.857 32.2121C31.857 32.7732 31.6559 33.189 31.2539 33.4597C30.8518 33.7289 30.2303 33.8642 29.3922 33.8642H27.0578V27.8887ZM34.367 28.9403V30.4726H34.929C35.2744 30.4726 35.5349 30.4092 35.7076 30.2851C35.8803 30.1597 35.9667 29.9722 35.9667 29.7227C35.9667 29.4534 35.8704 29.2561 35.6779 29.1292C35.4854 29.0023 35.181 28.9403 34.7634 28.9403H34.367ZM32.8026 27.8887H35.1867C35.9809 27.8887 36.5698 28.017 36.9549 28.2735C37.3399 28.5301 37.5325 28.9206 37.5325 29.445C37.5325 29.8326 37.4305 30.1512 37.2281 30.4007C37.0242 30.6502 36.7312 30.8166 36.3475 30.9011C36.6632 31.0153 36.9166 31.3424 37.1092 31.8809L37.8255 33.8642H36.1578L35.6298 32.229C35.5448 31.9654 35.4302 31.7836 35.2829 31.6821C35.1371 31.582 34.9092 31.5313 34.5992 31.5313H34.367V33.8642H32.8026V27.8887ZM38.4838 27.8887H40.0835V33.8642H38.4838V27.8887Z" fill="#1F4396"/>
</g>
<defs>
<clipPath id="clip0_32_10830">
<rect width="40.1024" height="33.8642" fill="white"/>
</clipPath>
</defs>
</svg>
