<svg width="297" height="24" viewBox="0 0 297 24" fill="none" xmlns="http://www.w3.org/2000/svg">
<path d="M1.404 18V5.31H7.038C8.43 5.31 9.492 5.646 10.224 6.318C10.956 6.99 11.322 7.914 11.322 9.09C11.322 9.87 11.154 10.548 10.818 11.124C10.494 11.688 10.014 12.126 9.378 12.438C8.742 12.738 7.962 12.888 7.038 12.888H3.726V18H1.404ZM3.726 11.052H6.768C7.536 11.052 8.112 10.884 8.496 10.548C8.88 10.2 9.072 9.714 9.072 9.09C9.072 8.466 8.88 7.986 8.496 7.65C8.112 7.302 7.536 7.128 6.768 7.128H3.726V11.052ZM13.2663 18V4.752H15.5163V18H13.2663ZM22.4056 18.18C21.3856 18.18 20.5096 17.994 19.7776 17.622C19.0576 17.238 18.4996 16.692 18.1036 15.984C17.7196 15.276 17.5276 14.436 17.5276 13.464C17.5276 12.516 17.7136 11.688 18.0856 10.98C18.4576 10.272 18.9736 9.72 19.6336 9.324C20.3056 8.928 21.0856 8.73 21.9736 8.73C22.8496 8.73 23.5816 8.916 24.1696 9.288C24.7576 9.66 25.2016 10.182 25.5016 10.854C25.8136 11.526 25.9696 12.312 25.9696 13.212V13.806H19.3456V12.618H24.3676L24.0616 12.87C24.0616 12.03 23.8816 11.388 23.5216 10.944C23.1736 10.5 22.6636 10.278 21.9916 10.278C21.4876 10.278 21.0616 10.398 20.7136 10.638C20.3776 10.878 20.1196 11.22 19.9396 11.664C19.7596 12.108 19.6696 12.648 19.6696 13.284V13.518C19.6696 14.502 19.9096 15.24 20.3896 15.732C20.8816 16.212 21.5716 16.452 22.4596 16.452C22.9756 16.452 23.4556 16.386 23.8996 16.254C24.3556 16.11 24.7876 15.882 25.1956 15.57L25.8616 17.082C25.4296 17.43 24.9136 17.7 24.3136 17.892C23.7136 18.084 23.0776 18.18 22.4056 18.18ZM31.439 18.18C30.647 18.18 29.951 17.994 29.351 17.622C28.751 17.238 28.283 16.692 27.947 15.984C27.611 15.276 27.443 14.43 27.443 13.446C27.443 12.462 27.611 11.622 27.947 10.926C28.283 10.218 28.751 9.678 29.351 9.306C29.951 8.922 30.647 8.73 31.439 8.73C32.207 8.73 32.879 8.922 33.455 9.306C34.043 9.678 34.433 10.182 34.625 10.818H34.427L34.625 8.91H36.785C36.749 9.282 36.713 9.66 36.677 10.044C36.653 10.428 36.641 10.806 36.641 11.178V18H34.409L34.391 16.128H34.607C34.415 16.752 34.025 17.25 33.437 17.622C32.849 17.994 32.183 18.18 31.439 18.18ZM32.069 16.452C32.777 16.452 33.347 16.206 33.779 15.714C34.211 15.21 34.427 14.454 34.427 13.446C34.427 12.438 34.211 11.688 33.779 11.196C33.347 10.704 32.777 10.458 32.069 10.458C31.361 10.458 30.791 10.704 30.359 11.196C29.927 11.688 29.711 12.438 29.711 13.446C29.711 14.454 29.921 15.21 30.341 15.714C30.773 16.206 31.349 16.452 32.069 16.452ZM42.3851 18.18C41.6051 18.18 40.8851 18.09 40.2251 17.91C39.5771 17.718 39.0311 17.454 38.5871 17.118L39.2171 15.606C39.6731 15.918 40.1771 16.158 40.7291 16.326C41.2811 16.494 41.8391 16.578 42.4031 16.578C43.0031 16.578 43.4471 16.476 43.7351 16.272C44.0351 16.068 44.1851 15.792 44.1851 15.444C44.1851 15.168 44.0891 14.952 43.8971 14.796C43.7171 14.628 43.4231 14.502 43.0151 14.418L41.2151 14.076C40.4471 13.908 39.8591 13.62 39.4511 13.212C39.0551 12.804 38.8571 12.27 38.8571 11.61C38.8571 11.046 39.0071 10.548 39.3071 10.116C39.6191 9.684 40.0571 9.348 40.6211 9.108C41.1971 8.856 41.8691 8.73 42.6371 8.73C43.3091 8.73 43.9391 8.82 44.5271 9C45.1271 9.18 45.6311 9.45 46.0391 9.81L45.3911 11.268C45.0191 10.968 44.5931 10.734 44.1131 10.566C43.6331 10.398 43.1651 10.314 42.7091 10.314C42.0851 10.314 41.6291 10.428 41.3411 10.656C41.0531 10.872 40.9091 11.154 40.9091 11.502C40.9091 11.766 40.9931 11.988 41.1611 12.168C41.3411 12.336 41.6171 12.462 41.9891 12.546L43.7891 12.888C44.5931 13.044 45.1991 13.32 45.6071 13.716C46.0271 14.1 46.2371 14.628 46.2371 15.3C46.2371 15.9 46.0751 16.416 45.7511 16.848C45.4271 17.28 44.9771 17.61 44.4011 17.838C43.8251 18.066 43.1531 18.18 42.3851 18.18ZM52.6087 18.18C51.5887 18.18 50.7127 17.994 49.9807 17.622C49.2607 17.238 48.7027 16.692 48.3067 15.984C47.9227 15.276 47.7307 14.436 47.7307 13.464C47.7307 12.516 47.9167 11.688 48.2887 10.98C48.6607 10.272 49.1767 9.72 49.8367 9.324C50.5087 8.928 51.2887 8.73 52.1767 8.73C53.0527 8.73 53.7847 8.916 54.3727 9.288C54.9607 9.66 55.4047 10.182 55.7047 10.854C56.0167 11.526 56.1727 12.312 56.1727 13.212V13.806H49.5487V12.618H54.5707L54.2647 12.87C54.2647 12.03 54.0847 11.388 53.7247 10.944C53.3767 10.5 52.8667 10.278 52.1947 10.278C51.6907 10.278 51.2647 10.398 50.9167 10.638C50.5807 10.878 50.3227 11.22 50.1427 11.664C49.9627 12.108 49.8727 12.648 49.8727 13.284V13.518C49.8727 14.502 50.1127 15.24 50.5927 15.732C51.0847 16.212 51.7747 16.452 52.6627 16.452C53.1787 16.452 53.6587 16.386 54.1027 16.254C54.5587 16.11 54.9907 15.882 55.3987 15.57L56.0647 17.082C55.6327 17.43 55.1167 17.7 54.5167 17.892C53.9167 18.084 53.2807 18.18 52.6087 18.18ZM63.3054 18V5.31H67.9134C69.3654 5.31 70.5894 5.562 71.5854 6.066C72.5934 6.558 73.3554 7.278 73.8714 8.226C74.3874 9.162 74.6454 10.302 74.6454 11.646C74.6454 12.978 74.3874 14.118 73.8714 15.066C73.3554 16.014 72.5934 16.74 71.5854 17.244C70.5894 17.748 69.3654 18 67.9134 18H63.3054ZM65.6274 16.074H67.7694C69.3054 16.074 70.4454 15.708 71.1894 14.976C71.9334 14.244 72.3054 13.134 72.3054 11.646C72.3054 10.146 71.9334 9.036 71.1894 8.316C70.4454 7.584 69.3054 7.218 67.7694 7.218H65.6274V16.074ZM80.9944 18.18C80.0584 18.18 79.2484 17.988 78.5644 17.604C77.8804 17.22 77.3464 16.674 76.9624 15.966C76.5904 15.258 76.4044 14.418 76.4044 13.446C76.4044 12.474 76.5904 11.64 76.9624 10.944C77.3464 10.236 77.8804 9.69 78.5644 9.306C79.2484 8.922 80.0584 8.73 80.9944 8.73C81.9304 8.73 82.7404 8.922 83.4244 9.306C84.1204 9.69 84.6544 10.236 85.0264 10.944C85.4104 11.64 85.6024 12.474 85.6024 13.446C85.6024 14.418 85.4104 15.258 85.0264 15.966C84.6544 16.674 84.1204 17.22 83.4244 17.604C82.7404 17.988 81.9304 18.18 80.9944 18.18ZM80.9944 16.452C81.7024 16.452 82.2664 16.206 82.6864 15.714C83.1064 15.21 83.3164 14.454 83.3164 13.446C83.3164 12.438 83.1064 11.688 82.6864 11.196C82.2664 10.704 81.7024 10.458 80.9944 10.458C80.2864 10.458 79.7224 10.704 79.3024 11.196C78.8824 11.688 78.6724 12.438 78.6724 13.446C78.6724 14.454 78.8824 15.21 79.3024 15.714C79.7224 16.206 80.2864 16.452 80.9944 16.452ZM89.9409 18L86.3949 8.91H88.7169L91.2729 15.984H90.8049L93.3969 8.91H94.9989L97.5729 15.984H97.1589L99.6969 8.91H101.893L98.3469 18H96.3669L93.6489 10.764H94.6029L91.9389 18H89.9409ZM103.366 18V11.178C103.366 10.806 103.354 10.428 103.33 10.044C103.306 9.66 103.27 9.282 103.222 8.91H105.4L105.58 10.71H105.364C105.652 10.074 106.078 9.588 106.642 9.252C107.206 8.904 107.86 8.73 108.604 8.73C109.672 8.73 110.476 9.03 111.016 9.63C111.556 10.23 111.826 11.166 111.826 12.438V18H109.576V12.546C109.576 11.814 109.432 11.292 109.144 10.98C108.868 10.656 108.448 10.494 107.884 10.494C107.188 10.494 106.636 10.71 106.228 11.142C105.82 11.574 105.616 12.15 105.616 12.87V18H103.366ZM114.265 18V4.752H116.515V18H114.265ZM123.117 18.18C122.181 18.18 121.371 17.988 120.687 17.604C120.003 17.22 119.469 16.674 119.085 15.966C118.713 15.258 118.527 14.418 118.527 13.446C118.527 12.474 118.713 11.64 119.085 10.944C119.469 10.236 120.003 9.69 120.687 9.306C121.371 8.922 122.181 8.73 123.117 8.73C124.053 8.73 124.863 8.922 125.547 9.306C126.243 9.69 126.777 10.236 127.149 10.944C127.533 11.64 127.725 12.474 127.725 13.446C127.725 14.418 127.533 15.258 127.149 15.966C126.777 16.674 126.243 17.22 125.547 17.604C124.863 17.988 124.053 18.18 123.117 18.18ZM123.117 16.452C123.825 16.452 124.389 16.206 124.809 15.714C125.229 15.21 125.439 14.454 125.439 13.446C125.439 12.438 125.229 11.688 124.809 11.196C124.389 10.704 123.825 10.458 123.117 10.458C122.409 10.458 121.845 10.704 121.425 11.196C121.005 11.688 120.795 12.438 120.795 13.446C120.795 14.454 121.005 15.21 121.425 15.714C121.845 16.206 122.409 16.452 123.117 16.452ZM133.229 18.18C132.437 18.18 131.741 17.994 131.141 17.622C130.541 17.238 130.073 16.692 129.737 15.984C129.401 15.276 129.233 14.43 129.233 13.446C129.233 12.462 129.401 11.622 129.737 10.926C130.073 10.218 130.541 9.678 131.141 9.306C131.741 8.922 132.437 8.73 133.229 8.73C133.997 8.73 134.669 8.922 135.245 9.306C135.833 9.678 136.223 10.182 136.415 10.818H136.217L136.415 8.91H138.575C138.539 9.282 138.503 9.66 138.467 10.044C138.443 10.428 138.431 10.806 138.431 11.178V18H136.199L136.181 16.128H136.397C136.205 16.752 135.815 17.25 135.227 17.622C134.639 17.994 133.973 18.18 133.229 18.18ZM133.859 16.452C134.567 16.452 135.137 16.206 135.569 15.714C136.001 15.21 136.217 14.454 136.217 13.446C136.217 12.438 136.001 11.688 135.569 11.196C135.137 10.704 134.567 10.458 133.859 10.458C133.151 10.458 132.581 10.704 132.149 11.196C131.717 11.688 131.501 12.438 131.501 13.446C131.501 14.454 131.711 15.21 132.131 15.714C132.563 16.206 133.139 16.452 133.859 16.452ZM144.463 18.18C143.671 18.18 142.969 17.994 142.357 17.622C141.757 17.238 141.289 16.692 140.953 15.984C140.617 15.276 140.449 14.43 140.449 13.446C140.449 12.462 140.617 11.622 140.953 10.926C141.289 10.218 141.757 9.678 142.357 9.306C142.969 8.922 143.671 8.73 144.463 8.73C145.219 8.73 145.885 8.916 146.461 9.288C147.049 9.648 147.439 10.14 147.631 10.764H147.397V4.752H149.647V18H147.433V16.074H147.649C147.457 16.722 147.067 17.238 146.479 17.622C145.903 17.994 145.231 18.18 144.463 18.18ZM145.093 16.452C145.801 16.452 146.371 16.206 146.803 15.714C147.235 15.21 147.451 14.454 147.451 13.446C147.451 12.438 147.235 11.688 146.803 11.196C146.371 10.704 145.801 10.458 145.093 10.458C144.385 10.458 143.809 10.704 143.365 11.196C142.933 11.688 142.717 12.438 142.717 13.446C142.717 14.454 142.933 15.21 143.365 15.714C143.809 16.206 144.385 16.452 145.093 16.452ZM160.421 18V12.006L160.907 13.392L155.453 5.31H158.135L161.879 11.07H161.375L165.119 5.31H167.711L162.275 13.392L162.743 12.006V18H160.421ZM171.129 18.18C170.193 18.18 169.383 17.988 168.699 17.604C168.015 17.22 167.481 16.674 167.097 15.966C166.725 15.258 166.539 14.418 166.539 13.446C166.539 12.474 166.725 11.64 167.097 10.944C167.481 10.236 168.015 9.69 168.699 9.306C169.383 8.922 170.193 8.73 171.129 8.73C172.065 8.73 172.875 8.922 173.559 9.306C174.255 9.69 174.789 10.236 175.161 10.944C175.545 11.64 175.737 12.474 175.737 13.446C175.737 14.418 175.545 15.258 175.161 15.966C174.789 16.674 174.255 17.22 173.559 17.604C172.875 17.988 172.065 18.18 171.129 18.18ZM171.129 16.452C171.837 16.452 172.401 16.206 172.821 15.714C173.241 15.21 173.451 14.454 173.451 13.446C173.451 12.438 173.241 11.688 172.821 11.196C172.401 10.704 171.837 10.458 171.129 10.458C170.421 10.458 169.857 10.704 169.437 11.196C169.017 11.688 168.807 12.438 168.807 13.446C168.807 14.454 169.017 15.21 169.437 15.714C169.857 16.206 170.421 16.452 171.129 16.452ZM181.007 18.18C179.891 18.18 179.057 17.874 178.505 17.262C177.953 16.65 177.677 15.714 177.677 14.454V8.91H179.927V14.436C179.927 15.108 180.065 15.606 180.341 15.93C180.617 16.242 181.037 16.398 181.601 16.398C182.237 16.398 182.753 16.182 183.149 15.75C183.557 15.318 183.761 14.748 183.761 14.04V8.91H186.011V18H183.815V16.146H184.067C183.803 16.794 183.401 17.298 182.861 17.658C182.333 18.006 181.715 18.18 181.007 18.18ZM188.49 18V11.232C188.49 10.848 188.478 10.458 188.454 10.062C188.442 9.666 188.412 9.282 188.364 8.91H190.542L190.794 11.394H190.434C190.554 10.794 190.752 10.296 191.028 9.9C191.316 9.504 191.664 9.21 192.072 9.018C192.48 8.826 192.924 8.73 193.404 8.73C193.62 8.73 193.794 8.742 193.926 8.766C194.058 8.778 194.19 8.808 194.322 8.856L194.304 10.836C194.076 10.74 193.878 10.68 193.71 10.656C193.554 10.632 193.356 10.62 193.116 10.62C192.6 10.62 192.162 10.728 191.802 10.944C191.454 11.16 191.19 11.46 191.01 11.844C190.842 12.228 190.758 12.666 190.758 13.158V18H188.49ZM203.79 18V7.218H199.596V5.31H210.306V7.218H206.112V18H203.79ZM211.82 18V8.91H214.07V18H211.82ZM211.694 7.2V5.004H214.196V7.2H211.694ZM220.744 18.18C219.808 18.18 218.986 17.988 218.278 17.604C217.582 17.22 217.042 16.674 216.658 15.966C216.274 15.246 216.082 14.394 216.082 13.41C216.082 12.426 216.274 11.586 216.658 10.89C217.054 10.194 217.6 9.66 218.296 9.288C218.992 8.916 219.808 8.73 220.744 8.73C221.344 8.73 221.926 8.826 222.49 9.018C223.066 9.198 223.534 9.462 223.894 9.81L223.21 11.376C222.886 11.076 222.52 10.854 222.112 10.71C221.716 10.554 221.326 10.476 220.942 10.476C220.138 10.476 219.508 10.728 219.052 11.232C218.608 11.736 218.386 12.468 218.386 13.428C218.386 14.388 218.608 15.126 219.052 15.642C219.508 16.158 220.138 16.416 220.942 16.416C221.314 16.416 221.698 16.344 222.094 16.2C222.502 16.056 222.874 15.834 223.21 15.534L223.894 17.082C223.522 17.43 223.048 17.7 222.472 17.892C221.908 18.084 221.332 18.18 220.744 18.18ZM225.692 18V4.752H227.942V12.78H227.978L231.668 8.91H234.386L229.796 13.716L229.814 12.816L234.71 18H231.92L227.978 13.932H227.942V18H225.692ZM239.894 18.18C238.874 18.18 237.998 17.994 237.266 17.622C236.546 17.238 235.988 16.692 235.592 15.984C235.208 15.276 235.016 14.436 235.016 13.464C235.016 12.516 235.202 11.688 235.574 10.98C235.946 10.272 236.462 9.72 237.122 9.324C237.794 8.928 238.574 8.73 239.462 8.73C240.338 8.73 241.07 8.916 241.658 9.288C242.246 9.66 242.69 10.182 242.99 10.854C243.302 11.526 243.458 12.312 243.458 13.212V13.806H236.834V12.618H241.856L241.55 12.87C241.55 12.03 241.37 11.388 241.01 10.944C240.662 10.5 240.152 10.278 239.48 10.278C238.976 10.278 238.55 10.398 238.202 10.638C237.866 10.878 237.608 11.22 237.428 11.664C237.248 12.108 237.158 12.648 237.158 13.284V13.518C237.158 14.502 237.398 15.24 237.878 15.732C238.37 16.212 239.06 16.452 239.948 16.452C240.464 16.452 240.944 16.386 241.388 16.254C241.844 16.11 242.276 15.882 242.684 15.57L243.35 17.082C242.918 17.43 242.402 17.7 241.802 17.892C241.202 18.084 240.566 18.18 239.894 18.18ZM249.27 18.18C248.19 18.18 247.374 17.898 246.822 17.334C246.27 16.77 245.994 15.924 245.994 14.796V10.602H244.248V8.91H245.994V6.588L248.244 6.012V8.91H250.674V10.602H248.244V14.652C248.244 15.276 248.364 15.714 248.604 15.966C248.844 16.218 249.174 16.344 249.594 16.344C249.822 16.344 250.014 16.326 250.17 16.29C250.338 16.254 250.5 16.206 250.656 16.146V17.928C250.452 18.012 250.224 18.072 249.972 18.108C249.732 18.156 249.498 18.18 249.27 18.18Z" fill="white"/>
<path d="M273.48 11.5203H294.401L291.381 8.49969L292.059 7.82097L296.239 12.0003L292.059 16.1797L291.381 15.501L294.401 12.4803H273.48V11.5203Z" fill="white"/>
</svg>
