<svg width="82" height="27" viewBox="0 0 82 27" fill="none" xmlns="http://www.w3.org/2000/svg">
<path fill-rule="evenodd" clip-rule="evenodd" d="M27.7918 0.738604H38.3352L38.3421 4.94247L35.7462 4.93556L41.9028 19.4593L47.9554 4.94937H45.29L45.2831 0.752413L53.7303 0.745513L53.7164 3.14082L43.5548 26.7349C41.1046 26.7418 39.5082 25.8582 38.6544 24.0083L30.2905 4.94937H27.7848L27.7918 0.738604ZM13.2781 0C20.6148 0 26.5632 5.9572 26.5632 13.3019C26.5632 20.6465 20.6148 26.5968 13.2781 26.5968C5.94844 26.5968 0 20.6465 0 13.3019C0 5.9572 5.94844 0 13.2781 0ZM13.2434 4.34882C17.8661 4.34882 21.6143 8.40082 21.6143 13.3985C21.6143 18.3962 17.8661 22.4413 13.2434 22.4413C8.61378 22.4413 4.86564 18.3962 4.86564 13.3985C4.86564 8.40082 8.61378 4.34882 13.2434 4.34882ZM68.702 0C76.0387 0 81.9871 5.9572 81.9871 13.3019C81.9871 20.6465 76.0387 26.5968 68.702 26.5968C61.3723 26.5968 55.4239 20.6465 55.4239 13.3019C55.4239 5.9572 61.3723 0 68.702 0ZM68.6673 4.34882C73.29 4.34882 77.0382 8.40082 77.0382 13.3985C77.0382 18.3962 73.29 22.4413 68.6673 22.4413C64.0377 22.4413 60.2896 18.3962 60.2896 13.3985C60.2896 8.40082 64.0377 4.34882 68.6673 4.34882Z" fill="#4C3494"/>
</svg>
