<svg width="63" height="63" viewBox="0 0 63 63" fill="none" xmlns="http://www.w3.org/2000/svg">
<g clip-path="url(#clip0_47_9753)">
<path d="M37.6943 52.7623C37.3657 52.6757 37.0627 52.5115 36.8106 52.2836L27.8109 43.9982L15.8742 46.6737C15.4864 46.7613 15.0817 46.7384 14.7063 46.6076C14.3308 46.4767 13.9996 46.2431 13.7503 45.9334C13.501 45.6237 13.3436 45.2502 13.296 44.8555C13.2483 44.4607 13.3124 44.0606 13.4809 43.7004L18.63 32.6943L12.3732 22.218C12.1799 21.884 12.0812 21.5037 12.0877 21.1178C12.0942 20.732 12.2057 20.3552 12.4101 20.0279C12.6268 19.695 12.9325 19.4295 13.2925 19.2615C13.6525 19.0935 14.0523 19.0298 14.4467 19.0776L26.6029 20.5089L34.5764 11.3596C34.8375 11.0576 35.1783 10.8352 35.5599 10.718C35.9415 10.6008 36.3484 10.5934 36.734 10.6967C37.1196 10.8 37.4683 11.0099 37.7401 11.3022C38.012 11.5945 38.196 11.9575 38.2711 12.3496L40.6687 24.2558L51.912 29.0944C52.2774 29.2502 52.5918 29.5053 52.8196 29.8308C53.0474 30.1562 53.1794 30.539 53.2006 30.9357C53.214 31.3213 53.1221 31.7034 52.9348 32.0408C52.7475 32.3782 52.4718 32.6582 52.1375 32.8508L41.4808 38.7952L40.437 50.9013C40.4071 51.3057 40.2622 51.6932 40.0192 52.0179C39.7763 52.3426 39.4455 52.5911 39.0659 52.7339C38.6244 52.8947 38.1421 52.9048 37.6943 52.7623Z" fill="url(#paint0_linear_47_9753)"/>
</g>
<defs>
<linearGradient id="paint0_linear_47_9753" x1="36.7648" y1="10.7049" x2="26.31" y2="49.7227" gradientUnits="userSpaceOnUse">
<stop stop-color="#FFF6DC"/>
<stop offset="1" stop-color="#FFC107"/>
</linearGradient>
<clipPath id="clip0_47_9753">
<rect width="51" height="51" fill="white" transform="translate(13.1998) rotate(15)"/>
</clipPath>
</defs>
</svg>
